<svg width="648" height="178" viewBox="0 0 648 178" fill="none" xmlns="http://www.w3.org/2000/svg">
<path d="M37.44 140.68C57.96 140.68 70.08 128.32 70.08 113.8C70.08 100.96 63 94.1202 52.2 89.6802L40.56 84.7602C33 81.7602 26.64 79.4802 26.64 73.1202C26.64 67.2402 31.68 63.7602 39.48 63.7602C46.8 63.7602 52.68 66.4002 58.32 71.0802L67.32 59.9202C60.12 52.6002 49.8 48.5202 39.48 48.5202C21.48 48.5202 8.76004 59.6802 8.76004 74.2002C8.76004 87.1602 17.76 94.3602 26.76 98.0802L38.64 103.12C46.56 106.48 51.96 108.52 51.96 115.12C51.96 121.36 47.04 125.32 37.8 125.32C30 125.32 21.6 121.36 15.24 115.48L5.04004 127.72C13.68 136 25.56 140.68 37.44 140.68Z" fill="black"/>
<path d="M84.3629 139H101.883V92.8002C106.923 87.8802 110.403 85.2402 115.923 85.2402C122.523 85.2402 125.403 88.9602 125.403 99.2802V139H143.043V97.1202C143.043 80.2002 136.803 70.1202 122.283 70.1202C113.163 70.1202 106.563 74.9202 101.163 79.9602L101.883 67.3602V43.2402H84.3629V139Z" fill="black"/>
<path d="M177.681 140.68C185.361 140.68 192.081 136.84 197.961 131.8H198.321L199.641 139H214.041V99.7602C214.041 80.3202 205.281 70.1202 188.241 70.1202C177.681 70.1202 168.081 74.0802 160.161 79.0002L166.521 90.6402C172.761 87.0402 178.761 84.2802 185.001 84.2802C193.281 84.2802 196.161 89.3202 196.401 95.9202C169.401 98.8002 157.761 106.36 157.761 120.76C157.761 132.16 165.681 140.68 177.681 140.68ZM183.441 126.88C178.281 126.88 174.561 124.6 174.561 119.32C174.561 113.32 180.081 108.88 196.401 106.72V120.28C192.201 124.48 188.481 126.88 183.441 126.88Z" fill="black"/>
<path d="M232.019 139H249.539V98.9202C253.379 89.2002 259.739 85.7202 265.019 85.7202C267.779 85.7202 269.699 86.0802 271.979 86.8002L275.099 71.5602C273.059 70.7202 270.899 70.1202 267.179 70.1202C260.219 70.1202 253.019 74.9202 248.099 83.6802H247.619L246.419 71.8002H232.019V139Z" fill="black"/>
<path d="M312.038 140.68C320.438 140.68 328.958 137.8 335.558 133.24L329.558 122.44C324.758 125.44 319.958 127.12 314.438 127.12C304.478 127.12 297.278 121.36 295.838 110.32H337.238C337.718 108.76 338.078 105.52 338.078 102.28C338.078 83.6802 328.478 70.1202 309.998 70.1202C293.918 70.1202 278.678 83.6802 278.678 105.52C278.678 127.6 293.318 140.68 312.038 140.68ZM295.598 98.6802C296.918 88.8402 303.158 83.8002 310.238 83.8002C318.878 83.8002 322.958 89.5602 322.958 98.6802H295.598Z" fill="black"/>
<path d="M354.045 139H385.725C405.285 139 420.165 130.72 420.165 112.84C420.165 100.84 413.085 94.1202 403.485 91.8402V91.2402C411.045 88.6002 415.605 80.2002 415.605 72.0402C415.605 55.4802 401.685 50.2002 383.445 50.2002H354.045V139ZM371.805 86.3202V63.7602H382.365C393.045 63.7602 398.325 66.8802 398.325 74.6802C398.325 81.7602 393.405 86.3202 382.125 86.3202H371.805ZM371.805 125.32V99.5202H384.165C396.405 99.5202 402.885 103.12 402.885 111.76C402.885 121 396.285 125.32 384.165 125.32H371.805Z" fill="black"/>
<path d="M462.365 140.68C479.165 140.68 494.645 127.72 494.645 105.52C494.645 83.0802 479.165 70.1202 462.365 70.1202C445.565 70.1202 430.085 83.0802 430.085 105.52C430.085 127.72 445.565 140.68 462.365 140.68ZM462.365 126.28C453.245 126.28 448.085 118.12 448.085 105.52C448.085 92.8002 453.245 84.5202 462.365 84.5202C471.485 84.5202 476.645 92.8002 476.645 105.52C476.645 118.12 471.485 126.28 462.365 126.28Z" fill="black"/>
<path d="M537.482 140.68C554.282 140.68 569.762 127.72 569.762 105.52C569.762 83.0802 554.282 70.1202 537.482 70.1202C520.682 70.1202 505.202 83.0802 505.202 105.52C505.202 127.72 520.682 140.68 537.482 140.68ZM537.482 126.28C528.362 126.28 523.202 118.12 523.202 105.52C523.202 92.8002 528.362 84.5202 537.482 84.5202C546.602 84.5202 551.762 92.8002 551.762 105.52C551.762 118.12 546.602 126.28 537.482 126.28Z" fill="black"/>
<path d="M584.519 139H601.679V122.2L611.399 111.16L627.719 139H646.799L621.359 99.2802L644.639 71.8002H625.439L602.159 100.84H601.679V43.2402H584.519V139Z" fill="black"/>
</svg>
