<svg width="24" height="24" viewBox="0 0 24 24" xmlns="http://www.w3.org/2000/svg">
<path d="M12.0473 0.571289C5.73561 0.571289 0.571533 5.84248 0.571533 12.2851C0.571533 17.4587 3.823 21.8512 8.41329 23.4131C8.98708 23.5108 9.17834 23.1203 9.17834 22.8275C9.17834 22.5346 9.17834 21.8512 9.17834 20.8751C6.02251 21.5584 5.35308 19.3134 5.35308 19.3134C4.87494 17.9468 4.10988 17.5563 4.10988 17.5563C2.96231 16.873 4.10988 16.873 4.10988 16.873C5.25746 16.9706 5.83125 18.0443 5.83125 18.0443C6.88319 19.8015 8.50891 19.3134 9.17834 19.0204C9.27396 18.2396 9.56087 17.7515 9.94338 17.4587C7.36134 17.1658 4.68367 16.1897 4.68367 11.6994C4.68367 10.4304 5.16182 9.35662 5.83125 8.57571C5.83125 8.18524 5.35308 7.01386 6.02251 5.45202C6.02251 5.45202 6.97881 5.15919 9.17834 6.62341C10.1346 6.33056 11.091 6.23295 12.0473 6.23295C13.0036 6.23295 13.9599 6.33056 14.9162 6.62341C17.1157 5.06158 18.0721 5.45202 18.0721 5.45202C18.7414 7.11148 18.2633 8.28286 18.1676 8.57571C18.9327 9.35662 19.3153 10.4304 19.3153 11.6994C19.3153 16.1897 16.6376 17.1658 14.0555 17.4587C14.438 17.8491 14.8206 18.5324 14.8206 19.6062C14.8206 21.1679 14.8206 22.437 14.8206 22.8275C14.8206 23.1203 15.0118 23.5108 15.5856 23.4131C20.1759 21.8512 23.4274 17.4587 23.4274 12.2851C23.523 5.84248 18.3589 0.571289 12.0473 0.571289Z" />
</svg>
